REM DIRINDEX 1\2,1\3,1\4,1\5,1\6
REM DIRNAME cjc091,folder01,folder02,folder03,folder04,folder05
TITLE ""
FILE "CD1-52.mp3" MP3
  TRACK 01 AUDIO
    TITLE "6:cjc091_1065"
    INDEX 01 00:00:00
  TRACK 02 AUDIO
    TITLE "0:"
    INDEX 01 00:01:58
  TRACK 03 AUDIO
    TITLE "2:cjc091_1066"
    INDEX 01 00:03:08
  TRACK 04 AUDIO
    TITLE "0:"
    INDEX 01 00:05:22
  TRACK 05 AUDIO
    TITLE "3:cjc091_1067"
    INDEX 01 00:05:40
  TRACK 06 AUDIO
    TITLE "0:"
    INDEX 01 00:07:21
  TRACK 07 AUDIO
    TITLE "4:cjc091_1068"
    INDEX 01 00:07:43
  TRACK 08 AUDIO
    TITLE "4:cjc091_1069"
    INDEX 01 00:09:45
  TRACK 09 AUDIO
    TITLE "4:cjc091_1070"
    INDEX 01 00:12:36
  TRACK 10 AUDIO
    TITLE "4:cjc091_1071"
    INDEX 01 00:13:71
  TRACK 11 AUDIO
    TITLE "0:"
    INDEX 01 00:16:14
  TRACK 12 AUDIO
    TITLE "2:cjc091_1072"
    INDEX 01 00:17:25
  TRACK 13 AUDIO
    TITLE "0:"
    INDEX 01 00:19:16
  TRACK 14 AUDIO
    TITLE "3:cjc091_1073"
    INDEX 01 00:19:34
  TRACK 15 AUDIO
    TITLE "0:"
    INDEX 01 00:21:33
  TRACK 16 AUDIO
    TITLE "4:cjc091_1074"
    INDEX 01 00:21:53
  TRACK 17 AUDIO
    TITLE "4:cjc091_1075"
    INDEX 01 00:24:27
  TRACK 18 AUDIO
    TITLE "0:"
    INDEX 01 00:26:36
  TRACK 19 AUDIO
    TITLE "2:cjc091_1076"
    INDEX 01 00:27:45
  TRACK 20 AUDIO
    TITLE "0:"
    INDEX 01 00:29:40
  TRACK 21 AUDIO
    TITLE "3:cjc091_1077"
    INDEX 01 00:29:60
  TRACK 22 AUDIO
    TITLE "0:"
    INDEX 01 00:31:39
  TRACK 23 AUDIO
    TITLE "4:cjc091_1078"
    INDEX 01 00:31:65
  TRACK 24 AUDIO
    TITLE "4:cjc091_1079"
    INDEX 01 00:35:19
  TRACK 25 AUDIO
    TITLE "4:cjc091_1080"
    INDEX 01 00:37:16
  TRACK 26 AUDIO
    TITLE "4:cjc091_1081"
    INDEX 01 00:39:11
  TRACK 27 AUDIO
    TITLE "4:cjc091_1082"
    INDEX 01 00:41:47
  TRACK 28 AUDIO
    TITLE "0:"
    INDEX 01 00:45:10
  TRACK 29 AUDIO
    TITLE "2:cjc091_1083"
    INDEX 01 00:46:15
  TRACK 30 AUDIO
    TITLE "0:"
    INDEX 01 00:47:58
  TRACK 31 AUDIO
    TITLE "3:cjc091_1084"
    INDEX 01 00:48:04
  TRACK 32 AUDIO
    TITLE "0:"
    INDEX 01 00:49:14
  TRACK 33 AUDIO
    TITLE "4:cjc091_1085"
    INDEX 01 00:49:27
  TRACK 34 AUDIO
    TITLE "4:cjc091_1086"
    INDEX 01 00:51:09
  TRACK 35 AUDIO
    TITLE "4:cjc091_1087"
    INDEX 01 00:53:37
  TRACK 36 AUDIO
    TITLE "4:cjc091_1088"
    INDEX 01 00:56:24
  TRACK 37 AUDIO
    TITLE "0:"
    INDEX 01 00:58:50
  TRACK 38 AUDIO
    TITLE "2:cjc091_1089"
    INDEX 01 00:59:63
  TRACK 39 AUDIO
    TITLE "0:"
    INDEX 01 01:01:21
  TRACK 40 AUDIO
    TITLE "3:cjc091_1090"
    INDEX 01 01:01:31
  TRACK 41 AUDIO
    TITLE "0:"
    INDEX 01 01:02:65
  TRACK 42 AUDIO
    TITLE "4:cjc091_1091"
    INDEX 01 01:03:08
  TRACK 43 AUDIO
    TITLE "4:cjc091_1092"
    INDEX 01 01:06:73
  TRACK 44 AUDIO
    TITLE "4:cjc091_1093"
    INDEX 01 01:08:74
  TRACK 45 AUDIO
    TITLE "4:cjc091_1094"
    INDEX 01 01:10:33
  TRACK 46 AUDIO
    TITLE "4:cjc091_1095"
    INDEX 01 01:11:74
  TRACK 47 AUDIO
    TITLE "0:"
    INDEX 01 01:16:54
  TRACK 48 AUDIO
    TITLE "2:cjc091_1096"
    INDEX 01 01:17:67
  TRACK 49 AUDIO
    TITLE "0:"
    INDEX 01 01:19:54
  TRACK 50 AUDIO
    TITLE "3:cjc091_1097"
    INDEX 01 01:20:04
  TRACK 51 AUDIO
    TITLE "0:"
    INDEX 01 01:21:65
  TRACK 52 AUDIO
    TITLE "4:cjc091_1098"
    INDEX 01 01:22:07
  TRACK 53 AUDIO
    TITLE "4:cjc091_1099"
    INDEX 01 01:24:24
  TRACK 54 AUDIO
    TITLE "4:cjc091_1100"
    INDEX 01 01:25:49
  TRACK 55 AUDIO
    TITLE "0:"
    INDEX 01 01:28:31
  TRACK 56 AUDIO
    TITLE "2:cjc091_1101"
    INDEX 01 01:29:37
  TRACK 57 AUDIO
    TITLE "0:"
    INDEX 01 01:31:30
  TRACK 58 AUDIO
    TITLE "3:cjc091_1102"
    INDEX 01 01:31:41
  TRACK 59 AUDIO
    TITLE "0:"
    INDEX 01 01:33:27
  TRACK 60 AUDIO
    TITLE "4:cjc091_1103"
    INDEX 01 01:33:46
  TRACK 61 AUDIO
    TITLE "4:cjc091_1104"
    INDEX 01 01:36:48
  TRACK 62 AUDIO
    TITLE "4:cjc091_1105"
    INDEX 01 01:40:38
  TRACK 63 AUDIO
    TITLE "4:cjc091_1106"
    INDEX 01 01:41:52
  TRACK 64 AUDIO
    TITLE "4:cjc091_1107"
    INDEX 01 01:44:40
  TRACK 65 AUDIO
    TITLE "0:"
    INDEX 01 01:46:21
  TRACK 66 AUDIO
    TITLE "2:cjc091_1108"
    INDEX 01 01:47:29
  TRACK 67 AUDIO
    TITLE "0:"
    INDEX 01 01:49:12
  TRACK 68 AUDIO
    TITLE "3:cjc091_1109"
    INDEX 01 01:49:37
  TRACK 69 AUDIO
    TITLE "0:"
    INDEX 01 01:51:34
  TRACK 70 AUDIO
    TITLE "4:cjc091_1110"
    INDEX 01 01:51:60
  TRACK 71 AUDIO
    TITLE "4:cjc091_1111"
    INDEX 01 01:53:53
  TRACK 72 AUDIO
    TITLE "4:cjc091_1112"
    INDEX 01 01:56:43
  TRACK 73 AUDIO
    TITLE "4:cjc091_1113"
    INDEX 01 01:57:66
  TRACK 74 AUDIO
    TITLE "0:"
    INDEX 01 02:02:36
  TRACK 75 AUDIO
    TITLE "2:cjc091_1114"
    INDEX 01 02:03:49
  TRACK 76 AUDIO
    TITLE "0:"
    INDEX 01 02:05:58
  TRACK 77 AUDIO
    TITLE "3:cjc091_1115"
    INDEX 01 02:06:01
  TRACK 78 AUDIO
    TITLE "0:"
    INDEX 01 02:08:33
  TRACK 79 AUDIO
    TITLE "4:cjc091_1116"
    INDEX 01 02:08:48
  TRACK 80 AUDIO
    TITLE "4:cjc091_1117"
    INDEX 01 02:11:45
  TRACK 81 AUDIO
    TITLE "4:cjc091_1118"
    INDEX 01 02:13:24
  TRACK 82 AUDIO
    TITLE "4:cjc091_1119"
    INDEX 01 02:15:45
  TRACK 83 AUDIO
    TITLE "4:cjc091_1120"
    INDEX 01 02:18:10
  TRACK 84 AUDIO
    TITLE "0:"
    INDEX 01 02:21:04
  TRACK 85 AUDIO
    TITLE "2:cjc091_1121"
    INDEX 01 02:22:07
  TRACK 86 AUDIO
    TITLE "0:"
    INDEX 01 02:24:14
  TRACK 87 AUDIO
    TITLE "3:cjc091_1122"
    INDEX 01 02:24:34
  TRACK 88 AUDIO
    TITLE "0:"
    INDEX 01 02:25:74
  TRACK 89 AUDIO
    TITLE "4:cjc091_1123"
    INDEX 01 02:26:15
  TRACK 90 AUDIO
    TITLE "4:cjc091_1124"
    INDEX 01 02:29:08
  TRACK 91 AUDIO
    TITLE "4:cjc091_1125"
    INDEX 01 02:30:07
  TRACK 92 AUDIO
    TITLE "4:cjc091_1126"
    INDEX 01 02:31:40
  TRACK 93 AUDIO
    TITLE "0:"
    INDEX 01 02:33:23
